<mxfile host="app.diagrams.net" modified="2023-06-22T18:00:22.899Z" agent="Mozilla/5.0 (Windows NT 10.0; Win64; x64) AppleWebKit/537.36 (KHTML, like Gecko) Chrome/114.0.0.0 Safari/537.36" etag="BEcA9sHbTCIZH3CXuGFZ" version="21.5.0" type="github">
  <diagram name="PÃ¡gina-1" id="sAoGX8CJQG-pIwPyxX0O">
    <mxGraphModel dx="794" dy="1615" grid="1" gridSize="10" guides="1" tooltips="1" connect="1" arrows="1" fold="1" page="1" pageScale="1" pageWidth="827" pageHeight="1169" math="0" shadow="0">
      <root>
        <mxCell id="0" />
        <mxCell id="1" parent="0" />
        <mxCell id="uEyu1Np_F0oKAOaRRAQd-6" style="edgeStyle=orthogonalEdgeStyle;rounded=0;orthogonalLoop=1;jettySize=auto;html=1;entryX=0;entryY=0.5;entryDx=0;entryDy=0;" edge="1" parent="1" source="uEyu1Np_F0oKAOaRRAQd-1" target="uEyu1Np_F0oKAOaRRAQd-4">
          <mxGeometry relative="1" as="geometry" />
        </mxCell>
        <mxCell id="uEyu1Np_F0oKAOaRRAQd-7" style="edgeStyle=orthogonalEdgeStyle;rounded=0;orthogonalLoop=1;jettySize=auto;html=1;entryX=0;entryY=0.5;entryDx=0;entryDy=0;" edge="1" parent="1" source="uEyu1Np_F0oKAOaRRAQd-1" target="uEyu1Np_F0oKAOaRRAQd-5">
          <mxGeometry relative="1" as="geometry" />
        </mxCell>
        <mxCell id="uEyu1Np_F0oKAOaRRAQd-8" style="edgeStyle=orthogonalEdgeStyle;rounded=0;orthogonalLoop=1;jettySize=auto;html=1;entryX=0;entryY=0.25;entryDx=0;entryDy=0;" edge="1" parent="1" source="uEyu1Np_F0oKAOaRRAQd-1" target="uEyu1Np_F0oKAOaRRAQd-3">
          <mxGeometry relative="1" as="geometry" />
        </mxCell>
        <mxCell id="uEyu1Np_F0oKAOaRRAQd-9" style="edgeStyle=orthogonalEdgeStyle;rounded=0;orthogonalLoop=1;jettySize=auto;html=1;entryX=0;entryY=0.5;entryDx=0;entryDy=0;" edge="1" parent="1" source="uEyu1Np_F0oKAOaRRAQd-1" target="uEyu1Np_F0oKAOaRRAQd-2">
          <mxGeometry relative="1" as="geometry" />
        </mxCell>
        <mxCell id="uEyu1Np_F0oKAOaRRAQd-1" value="IAM" style="text;html=1;strokeColor=none;fillColor=none;align=center;verticalAlign=middle;whiteSpace=wrap;rounded=0;" vertex="1" parent="1">
          <mxGeometry x="30" y="130" width="60" height="30" as="geometry" />
        </mxCell>
        <mxCell id="uEyu1Np_F0oKAOaRRAQd-2" value="GOVERNANCE" style="text;html=1;strokeColor=none;fillColor=none;align=center;verticalAlign=middle;whiteSpace=wrap;rounded=0;" vertex="1" parent="1">
          <mxGeometry x="250" y="350" width="90" height="30" as="geometry" />
        </mxCell>
        <mxCell id="uEyu1Np_F0oKAOaRRAQd-3" value="SERVICE PROVIDERS" style="text;html=1;strokeColor=none;fillColor=none;align=center;verticalAlign=middle;whiteSpace=wrap;rounded=0;" vertex="1" parent="1">
          <mxGeometry x="250" y="230" width="130" height="30" as="geometry" />
        </mxCell>
        <mxCell id="uEyu1Np_F0oKAOaRRAQd-12" value="" style="edgeStyle=orthogonalEdgeStyle;rounded=0;orthogonalLoop=1;jettySize=auto;html=1;entryX=0;entryY=0.5;entryDx=0;entryDy=0;" edge="1" parent="1" source="uEyu1Np_F0oKAOaRRAQd-4" target="uEyu1Np_F0oKAOaRRAQd-11">
          <mxGeometry relative="1" as="geometry" />
        </mxCell>
        <mxCell id="uEyu1Np_F0oKAOaRRAQd-13" style="edgeStyle=orthogonalEdgeStyle;rounded=0;orthogonalLoop=1;jettySize=auto;html=1;entryX=0;entryY=0.5;entryDx=0;entryDy=0;" edge="1" parent="1" source="uEyu1Np_F0oKAOaRRAQd-4" target="uEyu1Np_F0oKAOaRRAQd-14">
          <mxGeometry relative="1" as="geometry">
            <mxPoint x="410" y="105" as="targetPoint" />
          </mxGeometry>
        </mxCell>
        <mxCell id="uEyu1Np_F0oKAOaRRAQd-4" value="AUTH" style="text;html=1;strokeColor=none;fillColor=none;align=center;verticalAlign=middle;whiteSpace=wrap;rounded=0;" vertex="1" parent="1">
          <mxGeometry x="250" y="5" width="60" height="30" as="geometry" />
        </mxCell>
        <mxCell id="uEyu1Np_F0oKAOaRRAQd-5" value="AUTHO" style="text;html=1;strokeColor=none;fillColor=none;align=center;verticalAlign=middle;whiteSpace=wrap;rounded=0;" vertex="1" parent="1">
          <mxGeometry x="250" y="130" width="60" height="30" as="geometry" />
        </mxCell>
        <mxCell id="uEyu1Np_F0oKAOaRRAQd-11" value="AUTH" style="text;html=1;strokeColor=none;fillColor=none;align=center;verticalAlign=middle;whiteSpace=wrap;rounded=0;" vertex="1" parent="1">
          <mxGeometry x="550" y="-30" width="60" height="30" as="geometry" />
        </mxCell>
        <mxCell id="uEyu1Np_F0oKAOaRRAQd-14" value="Oautflow" style="text;html=1;strokeColor=none;fillColor=none;align=center;verticalAlign=middle;whiteSpace=wrap;rounded=0;" vertex="1" parent="1">
          <mxGeometry x="550" y="40" width="60" height="30" as="geometry" />
        </mxCell>
      </root>
    </mxGraphModel>
  </diagram>
</mxfile>
